<svg width="46" height="46" viewBox="0 0 46 46" fill="none" xmlns="http://www.w3.org/2000/svg">
<path d="M19.8672 10.52L12.5373 2.05919C11.6923 1.08419 10.1432 1.08852 9.16168 2.07219L3.13401 8.11069C1.34001 9.90686 0.826511 12.574 1.86434 14.7125C8.06452 27.5499 18.4178 37.9177 31.2465 44.1358C33.3828 45.1737 36.0478 44.6602 37.8418 42.864L43.9258 36.7692C44.9117 35.7834 44.9138 34.2255 43.9302 33.3805L35.4368 26.0897C34.5485 25.327 33.1683 25.4267 32.2778 26.3194L29.3225 29.279C29.1712 29.4376 28.9721 29.5421 28.7556 29.5766C28.5392 29.611 28.3174 29.5735 28.1243 29.4697C23.2936 26.6879 19.2865 22.6755 16.511 17.8412C16.4071 17.6478 16.3694 17.4257 16.4039 17.2089C16.4383 16.992 16.5429 16.7925 16.7017 16.6409L19.6483 13.692C20.541 12.795 20.6385 11.4084 19.8672 10.5179V10.52Z" stroke="black" stroke-width="2" stroke-linecap="round" stroke-linejoin="round"/>
</svg>
