<svg width="36" height="36" viewBox="0 0 36 36" fill="none" xmlns="http://www.w3.org/2000/svg">
<g opacity="0.5">
<path d="M29.3954 32.3349H26.4559V29.3954C26.4559 28.226 25.9913 27.1044 25.1644 26.2775C24.3375 25.4506 23.216 24.9861 22.0466 24.9861H13.2279C12.0585 24.9861 10.937 25.4506 10.1101 26.2775C9.28318 27.1044 8.81863 28.226 8.81863 29.3954V32.3349H5.87909V29.3954C5.87909 27.4463 6.65334 25.5771 8.03152 24.199C9.4097 22.8208 11.2789 22.0465 13.2279 22.0465H22.0466C23.9956 22.0465 25.8648 22.8208 27.243 24.199C28.6212 25.5771 29.3954 27.4463 29.3954 29.3954V32.3349ZM17.6373 19.107C16.4792 19.107 15.3324 18.8789 14.2625 18.4357C13.1926 17.9925 12.2204 17.343 11.4015 16.5241C10.5827 15.7052 9.93309 14.733 9.48991 13.6631C9.04673 12.5932 8.81863 11.4464 8.81863 10.2884C8.81863 9.13028 9.04673 7.98354 9.48991 6.91361C9.93309 5.84369 10.5827 4.87153 11.4015 4.05264C12.2204 3.23376 13.1926 2.58418 14.2625 2.141C15.3324 1.69783 16.4792 1.46973 17.6373 1.46973C19.9761 1.46973 22.2192 2.39883 23.873 4.05264C25.5268 5.70646 26.4559 7.94951 26.4559 10.2884C26.4559 12.6272 25.5268 14.8703 23.873 16.5241C22.2192 18.1779 19.9761 19.107 17.6373 19.107V19.107ZM17.6373 16.1674C19.1965 16.1674 20.6919 15.548 21.7944 14.4455C22.8969 13.343 23.5163 11.8476 23.5163 10.2884C23.5163 8.72912 22.8969 7.23376 21.7944 6.13121C20.6919 5.02867 19.1965 4.40927 17.6373 4.40927C16.078 4.40927 14.5827 5.02867 13.4801 6.13121C12.3776 7.23376 11.7582 8.72912 11.7582 10.2884C11.7582 11.8476 12.3776 13.343 13.4801 14.4455C14.5827 15.548 16.078 16.1674 17.6373 16.1674V16.1674Z" fill="black"/>
</g>
</svg>
