<svg width="40" height="40" viewBox="0 0 40 40" fill="none" xmlns="http://www.w3.org/2000/svg">
<g opacity="0.5">
<path d="M28.3333 4.99996H35C35.442 4.99996 35.866 5.17555 36.1785 5.48811C36.4911 5.80068 36.6667 6.2246 36.6667 6.66663V33.3333C36.6667 33.7753 36.4911 34.1992 36.1785 34.5118C35.866 34.8244 35.442 35 35 35H5.00001C4.55798 35 4.13406 34.8244 3.8215 34.5118C3.50894 34.1992 3.33334 33.7753 3.33334 33.3333V6.66663C3.33334 6.2246 3.50894 5.80068 3.8215 5.48811C4.13406 5.17555 4.55798 4.99996 5.00001 4.99996H11.6667V1.66663H15V4.99996H25V1.66663H28.3333V4.99996ZM25 8.33329H15V11.6666H11.6667V8.33329H6.66668V15H33.3333V8.33329H28.3333V11.6666H25V8.33329ZM33.3333 18.3333H6.66668V31.6666H33.3333V18.3333Z" fill="black"/>
</g>
</svg>
