<svg width="48" height="36" viewBox="0 0 48 36" fill="none" xmlns="http://www.w3.org/2000/svg">
<path d="M44.222 0.666626H3.77756C3.01138 0.666626 2.27658 0.97099 1.73481 1.51276C1.19304 2.05453 0.888672 2.78933 0.888672 3.55551V32.4444C0.888672 33.2106 1.19304 33.9454 1.73481 34.4872C2.27658 35.0289 3.01138 35.3333 3.77756 35.3333H44.222C44.9882 35.3333 45.723 35.0289 46.2648 34.4872C46.8065 33.9454 47.1109 33.2106 47.1109 32.4444V3.55551C47.1109 2.78933 46.8065 2.05453 46.2648 1.51276C45.723 0.97099 44.9882 0.666626 44.222 0.666626ZM41.9976 32.4444H6.17534L16.2864 21.9866L14.2064 19.9788L3.77756 30.7688V5.75107L21.732 23.6188C22.2733 24.1569 23.0055 24.4589 23.7687 24.4589C24.5319 24.4589 25.2641 24.1569 25.8053 23.6188L44.222 5.30329V30.5811L33.5909 19.95L31.5542 21.9866L41.9976 32.4444ZM5.66978 3.55551H41.882L23.7687 21.5677L5.66978 3.55551Z" fill="black"/>
</svg>
